<?xml version="1.0" standalone="no"?>
<!DOCTYPE svg PUBLIC "-//W3C//DTD SVG 20010904//EN"
 "http://www.w3.org/TR/2001/REC-SVG-20010904/DTD/svg10.dtd">
<svg version="1.0" xmlns="http://www.w3.org/2000/svg"
 width="225.000000pt" height="225.000000pt" viewBox="0 0 225.000000 225.000000"
 preserveAspectRatio="xMidYMid meet">
<metadata>
Created by potrace 1.10, written by Peter Selinger 2001-2011
</metadata>
<g transform="translate(0.000000,225.000000) scale(0.100000,-0.100000)"
fill="#f5f0f0" stroke="none">
<path d="M975 2239 c-293 -34 -577 -209 -764 -468 -217 -302 -262 -736 -111
-1093 28 -68 105 -199 145 -248 190 -234 465 -390 737 -419 51 -5 69 -4 72 6
3 7 11 10 18 8 7 -3 42 -1 76 3 35 5 65 5 68 0 3 -4 0 -8 -5 -8 -6 0 -11 -4
-11 -9 0 -21 197 17 314 61 205 75 368 197 500 373 145 192 213 385 223 630 4
106 1 163 -11 235 -48 273 -179 505 -383 677 -12 10 -32 27 -45 38 -80 68
-266 157 -399 191 -74 19 -199 33 -199 22 0 -4 6 -9 13 -9 6 -1 -6 -5 -28 -9
-25 -5 -42 -4 -46 3 -4 5 -15 7 -25 2 -11 -4 -31 -8 -46 -9 -22 -1 -27 3 -22
17 3 9 4 16 2 16 -2 -1 -34 -5 -73 -10z m330 -70 c217 -37 403 -136 565 -298
164 -165 260 -353 295 -581 53 -343 -54 -672 -299 -916 -205 -205 -450 -306
-740 -305 -192 0 -320 31 -483 115 -267 138 -461 384 -540 684 -34 129 -38
353 -9 477 95 412 381 706 786 810 116 30 297 36 425 14z"/>
<path d="M1013 2149 c-361 -35 -690 -282 -833 -626 -116 -278 -103 -603 33
-868 169 -327 492 -539 852 -558 410 -23 790 196 974 560 85 169 105 260 105
473 -1 161 -3 182 -28 265 -58 193 -141 332 -281 470 -219 215 -507 315 -822
284z m342 -33 c292 -70 538 -265 672 -531 221 -437 96 -979 -290 -1268 -204
-152 -403 -215 -652 -204 -199 8 -351 56 -504 158 -115 76 -188 144 -262 242
-272 366 -273 858 0 1223 146 196 358 332 601 385 106 23 327 21 435 -5z"/>
<path d="M970 2113 c-428 -72 -760 -408 -825 -833 -19 -121 -19 -202 0 -315
18 -111 34 -162 78 -259 121 -260 349 -457 628 -542 89 -28 103 -29 274 -28
210 0 280 15 430 89 91 44 224 139 280 197 97 103 208 287 240 403 62 218 56
451 -16 645 -47 127 -136 269 -224 355 -147 146 -329 244 -523 281 -68 13
-281 17 -342 7z m347 -37 c45 -8 90 -19 100 -24 10 -5 24 -7 32 -4 8 3 11 0 7
-6 -4 -7 4 -14 21 -18 45 -11 163 -66 158 -74 -5 -8 32 -23 48 -21 5 1 6 -3 2
-8 -3 -6 6 -13 20 -17 14 -3 25 -13 25 -21 0 -10 6 -13 17 -9 10 4 14 4 10 0
-4 -4 1 -13 11 -21 9 -8 11 -11 3 -7 -9 4 -12 3 -7 -4 4 -6 14 -8 23 -5 13 5
15 2 10 -11 -6 -14 -3 -17 9 -12 12 5 15 2 10 -9 -4 -11 0 -15 12 -13 11 2 16
-3 14 -13 -1 -9 7 -24 18 -34 11 -10 20 -14 21 -9 1 5 4 -2 8 -16 4 -14 13
-24 20 -22 7 1 10 -2 7 -7 -4 -5 -1 -13 6 -18 7 -4 13 -15 13 -23 0 -8 6 -15
14 -15 8 0 16 -7 18 -15 4 -13 3 -13 -6 0 -7 9 -11 10 -11 3 0 -6 5 -15 10
-18 13 -8 50 -84 50 -102 0 -8 5 -11 10 -8 6 3 10 4 10 1 0 -2 3 -13 7 -23 3
-10 3 -15 -2 -11 -4 4 -20 1 -36 -7 -31 -17 -52 -20 -29 -5 13 9 13 10 0 10
-9 0 -22 -6 -29 -12 -10 -9 -12 -9 -7 -1 4 8 -6 13 -31 15 -34 3 -38 7 -48 42
-6 21 -18 43 -26 50 -20 16 -21 31 -5 86 11 35 12 52 4 56 -7 5 -8 2 -4 -7 4
-8 0 -5 -8 6 -9 11 -14 26 -11 34 3 9 3 13 0 9 -3 -3 -18 5 -32 18 -30 28
-113 35 -113 10 0 -7 -9 -16 -21 -19 -11 -3 -23 -15 -26 -26 -3 -12 -9 -21
-14 -21 -14 0 -10 -26 6 -40 21 -18 15 -56 -13 -76 -13 -10 -28 -29 -33 -42
-10 -25 9 -163 24 -173 4 -3 3 -36 -3 -73 -7 -36 -9 -85 -5 -109 14 -91 16
-203 4 -281 -18 -123 -17 -139 7 -158 19 -16 43 -18 187 -15 159 2 166 3 186
25 20 24 18 48 -5 67 -21 18 -65 111 -69 145 -1 8 -6 42 -10 75 -6 48 -9 176
-6 241 1 5 23 11 49 11 35 1 60 9 87 27 53 36 63 33 72 -21 13 -75 9 -322 -6
-373 -7 -25 -15 -60 -17 -79 -3 -19 -10 -41 -16 -48 -6 -7 -8 -16 -4 -20 3 -3
-1 -14 -9 -23 -9 -10 -15 -21 -13 -26 1 -5 -10 -28 -25 -52 -15 -23 -25 -47
-22 -51 2 -5 -5 -11 -16 -14 -14 -4 -20 -11 -16 -21 3 -8 -1 -17 -9 -20 -9 -3
-13 -9 -11 -13 7 -11 -19 -33 -29 -25 -4 4 -4 1 0 -5 10 -18 -4 -40 -14 -23
-5 8 -10 3 -14 -14 -4 -17 -11 -24 -18 -20 -8 5 -9 2 -5 -10 5 -12 2 -16 -11
-14 -11 2 -16 -3 -14 -14 2 -12 -2 -16 -13 -12 -10 4 -15 0 -15 -12 0 -9 -3
-14 -7 -11 -3 4 -11 -3 -18 -16 -6 -12 -19 -21 -28 -21 -9 1 -14 -2 -11 -7 3
-5 -3 -12 -13 -16 -10 -4 -23 -13 -29 -21 -6 -8 -16 -12 -22 -8 -7 4 -12 1
-12 -8 0 -10 -6 -13 -15 -9 -10 3 -15 0 -13 -8 2 -7 -2 -13 -9 -14 -7 0 -22
-8 -33 -18 -12 -10 -25 -15 -31 -11 -5 3 -16 1 -23 -5 -22 -18 -145 -61 -176
-61 -17 0 -30 -3 -30 -7 0 -9 -13 -10 -117 -15 -40 -2 -73 -7 -73 -12 0 -5 -7
-3 -15 4 -8 7 -31 10 -55 7 -22 -2 -43 0 -46 5 -4 6 -19 8 -35 6 -16 -3 -29
-1 -29 4 0 4 -13 8 -30 8 -16 0 -30 5 -30 11 0 5 -4 7 -10 4 -5 -3 -26 -3 -46
1 -22 4 -31 9 -24 14 8 5 0 10 -21 15 -39 8 -126 51 -146 70 -7 7 -26 16 -43
20 -18 4 -27 11 -23 18 4 7 0 8 -11 4 -11 -4 -15 -3 -11 4 8 12 -22 49 -39 49
-6 0 -2 -7 8 -15 11 -8 16 -15 10 -15 -15 1 -49 30 -35 30 11 0 11 3 1 15 -7
8 -16 13 -20 10 -10 -6 -24 13 -27 40 -3 18 4 20 79 23 44 2 92 8 106 13 18 7
28 6 33 -3 6 -9 31 -12 90 -10 92 3 109 -5 109 -52 0 -50 37 -82 97 -85 41 -1
56 3 80 23 17 14 36 40 43 58 33 90 55 119 63 87 3 -12 12 -19 19 -17 7 3 19
-1 26 -9 27 -27 133 -11 173 25 40 38 47 146 13 198 -12 17 -12 23 1 40 8 10
15 38 15 61 0 33 -6 50 -29 75 -28 32 -32 33 -103 32 -40 -1 -86 -1 -103 -2
-16 0 -43 0 -60 -1 -16 0 -81 0 -143 0 -88 0 -120 -4 -138 -16 -14 -9 -29 -13
-34 -10 -6 3 -10 1 -10 -5 0 -16 -28 13 -30 31 -5 30 1 40 26 49 14 6 22 14
19 20 -3 5 -1 10 4 10 14 0 51 37 51 50 0 16 -9 12 -72 -30 l-60 -40 -134 0
-134 0 2 -187 3 -188 25 0 25 0 3 124 c2 76 -1 128 -8 135 -19 19 -10 24 46
22 l56 -2 2 -191 c1 -178 0 -191 -15 -177 -12 11 -39 14 -110 13 -134 -2 -129
-13 -129 265 0 181 3 225 15 243 15 21 24 22 238 26 259 6 256 6 231 24 -13
10 -70 13 -234 13 l-217 0 -32 -30 -31 -30 -1 -148 c-1 -81 -2 -170 -3 -199
l-1 -52 -20 20 c-17 17 -18 21 -5 29 12 8 11 10 -7 10 -13 0 -24 6 -24 13 -1
6 -2 17 -4 22 -1 6 -3 16 -3 23 -1 7 -7 10 -14 6 -7 -4 -8 -3 -4 5 4 6 3 18
-3 25 -18 21 -52 185 -58 281 -3 50 0 130 6 180 13 100 40 217 51 225 4 3 18
33 30 68 14 39 26 59 31 51 5 -8 9 -2 11 17 2 23 8 29 27 29 21 0 26 -7 37
-50 16 -68 54 -270 60 -325 3 -24 11 -48 17 -52 9 -6 9 -8 0 -8 -20 0 -15 -24
10 -45 18 -16 34 -19 82 -16 33 1 62 7 63 12 5 13 26 11 40 -3 15 -15 122 -23
122 -8 0 6 6 10 13 8 7 -2 15 2 17 7 3 6 -26 11 -73 13 -65 2 -77 5 -68 16 9
10 8 37 -4 101 -8 48 -15 98 -15 111 0 13 -3 24 -8 24 -4 0 -15 -50 -25 -111
-16 -106 -16 -113 1 -125 14 -11 5 -13 -67 -14 -79 0 -83 1 -69 18 14 15 12
38 -24 227 -50 270 -45 253 -68 273 -11 9 -20 19 -20 22 0 3 35 4 77 3 58 -2
77 -5 74 -15 -2 -7 -4 -20 -5 -28 -2 -25 27 -200 33 -200 11 0 40 205 30 215
-22 22 -6 30 59 30 l68 0 0 -55 c0 -71 15 -190 24 -190 3 0 12 37 19 83 7 45
17 99 22 120 l10 37 172 0 c95 0 182 3 195 6 40 11 23 -12 -38 -53 -54 -37
-64 -40 -107 -35 -27 3 -51 10 -55 16 -5 8 -8 8 -8 0 0 -6 -13 -11 -29 -11
-44 0 -58 -17 -65 -81 -4 -31 -20 -122 -35 -202 -26 -132 -28 -147 -13 -162
20 -23 28 -23 28 1 0 11 -5 17 -11 13 -5 -3 -5 1 2 9 12 15 37 130 35 164 -1
16 1 17 8 5 5 -8 10 -55 10 -103 0 -84 2 -90 28 -117 23 -22 35 -27 68 -25 21
2 45 4 52 4 8 1 10 6 6 14 -6 9 -4 9 7 1 17 -14 34 -16 129 -15 41 1 76 5 78
11 2 5 10 6 19 3 11 -4 14 -2 9 5 -4 7 -3 12 3 12 5 0 14 -7 19 -16 7 -13 28
-17 100 -19 50 -1 89 2 86 6 -3 5 0 9 7 9 21 0 54 45 56 75 3 39 -16 75 -39
75 -10 0 -18 7 -18 15 0 8 5 15 10 15 6 0 10 7 10 15 0 8 5 15 11 15 5 0 7 5
4 10 -3 6 0 10 7 10 9 0 13 19 14 67 1 70 -7 88 -53 112 -34 17 -164 14 -191
-5 -24 -16 -78 -12 -67 5 9 15 -90 23 -135 11 -48 -13 -61 -7 -37 17 11 11 17
13 17 5 0 -14 28 7 82 61 39 38 41 59 9 84 -22 17 -332 18 -378 1 -18 -7 -33
-16 -33 -21 0 -5 -12 1 -26 12 -20 16 -41 21 -85 21 -32 0 -61 -4 -64 -10 -3
-5 -17 -10 -31 -10 -13 0 -24 5 -24 10 0 6 -18 10 -39 10 -25 0 -41 5 -45 15
-3 8 0 14 6 12 6 -1 14 9 18 23 4 16 13 25 25 25 11 0 20 5 21 10 2 23 17 44
26 39 6 -4 5 -10 -3 -16 -11 -8 -11 -9 1 -5 8 2 25 18 37 37 13 18 23 29 23
24 0 -5 7 0 15 10 8 11 18 17 21 13 10 -9 35 13 28 24 -3 5 2 6 10 3 9 -4 16
-1 16 6 0 7 7 10 15 7 8 -4 17 -1 21 5 5 7 2 8 -6 3 -8 -5 -11 -4 -6 3 4 6 13
9 20 6 7 -3 16 2 20 11 3 9 10 13 16 10 5 -3 10 -2 10 4 0 6 7 7 17 4 10 -4
14 -2 10 4 -8 13 37 26 66 18 12 -2 15 -2 7 2 -8 4 38 17 105 29 134 24 236
24 372 0z m446 -343 c5 -3 6 -14 4 -25 -4 -14 1 -22 19 -28 29 -11 32 -30 4
-30 -15 0 -20 -7 -20 -25 0 -13 -8 -28 -17 -34 -14 -7 -15 -12 -5 -24 7 -8 24
-18 37 -21 19 -5 26 -15 30 -44 14 -86 8 -80 91 -87 42 -4 85 -3 97 2 27 11
59 5 54 -10 -2 -7 -12 -12 -23 -12 -11 0 -24 -12 -32 -27 -8 -17 -21 -28 -33
-28 -11 0 -29 -5 -40 -10 -15 -9 -21 -7 -25 5 -8 19 -21 19 -41 -1 -10 -10
-25 -13 -39 -10 -28 7 -28 10 -8 -45 9 -28 17 -92 20 -172 2 -71 8 -136 13
-145 5 -9 12 -38 16 -64 7 -48 35 -88 60 -88 8 0 15 -9 15 -20 0 -19 -7 -20
-159 -20 -88 0 -166 -3 -175 -6 -11 -4 -16 0 -16 14 0 12 4 23 9 26 11 7 18
59 31 221 8 105 8 121 -6 132 -14 10 -15 26 -9 110 6 92 -2 162 -31 255 -4 12
4 21 28 32 18 7 42 20 52 29 19 14 19 16 3 50 -9 19 -24 37 -32 41 -8 3 -15
12 -15 21 0 11 6 14 25 9 20 -5 25 -2 25 13 0 11 3 23 7 26 6 7 70 -1 86 -10z
m-836 -119 c30 -8 37 -32 18 -61 -12 -18 -24 -23 -50 -21 -28 2 -34 6 -39 31
-9 43 21 64 71 51z m45 -246 c-3 -155 -2 -174 14 -185 15 -11 9 -13 -44 -13
l-62 0 0 138 c0 78 -4 142 -10 148 -7 7 8 22 43 46 28 20 54 37 57 37 3 1 4
-76 2 -171z m231 141 c11 -14 17 -38 16 -73 -1 -46 -2 -48 -11 -23 -15 41 -89
52 -96 14 -2 -11 11 -26 42 -44 49 -30 66 -64 66 -135 0 -58 -26 -78 -103 -78
-81 0 -97 12 -108 80 -9 60 4 105 16 52 8 -37 37 -56 71 -48 38 10 32 47 -13
71 -61 33 -73 52 -73 115 0 81 28 103 125 95 36 -3 55 -11 68 -26z m265 -50
c3 -73 4 -71 -72 -129 -29 -23 -45 -43 -46 -57 0 -20 5 -23 44 -23 26 0 48 6
56 15 7 8 16 15 21 15 17 0 9 -58 -12 -84 -19 -24 -26 -26 -104 -26 -73 0 -86
3 -95 19 -15 29 -13 314 2 329 9 9 42 12 108 10 l95 -3 3 -66z m-766 -536
c-12 -2 -20 -8 -17 -13 3 -4 -7 -15 -21 -25 -25 -16 -26 -15 -49 9 -18 19 -35
26 -77 29 -29 2 1 4 67 4 66 0 110 -2 97 -4z m33 -185 c0 -146 1 -153 20 -153
18 0 20 8 23 99 2 57 -2 103 -8 110 -7 10 3 24 39 54 27 23 51 42 53 42 2 0 3
-73 3 -162 0 -90 3 -175 7 -189 8 -26 7 -27 -38 -24 -26 2 -50 9 -54 15 -6 10
-13 9 -31 -4 -28 -19 -59 -21 -83 -3 -16 12 -18 28 -17 136 1 87 -2 127 -11
138 -11 13 -9 18 12 32 13 9 36 26 50 38 14 12 27 23 30 23 3 0 5 -69 5 -152z
m270 132 c-9 -14 5 -140 15 -140 10 0 31 116 24 134 -4 11 8 14 50 15 61 0 60
1 46 -43 -6 -17 -28 -114 -50 -215 -22 -101 -45 -192 -51 -202 -13 -25 -41
-39 -81 -39 -50 0 -59 11 -63 74 -3 57 6 71 25 36 12 -23 33 -26 49 -7 8 10 1
58 -28 188 -21 96 -42 181 -45 190 -6 13 3 16 54 17 39 1 59 -2 55 -8z m329
-5 c14 -11 20 -30 23 -72 4 -57 4 -58 -12 -31 -18 32 -58 46 -80 28 -25 -21
-17 -38 30 -66 54 -31 65 -49 65 -106 0 -62 -9 -84 -36 -97 -30 -13 -104 -14
-137 -2 -29 11 -35 26 -38 93 -3 46 13 69 19 29 4 -27 27 -44 58 -43 63 0 53
36 -22 85 -48 32 -49 33 -52 90 -3 50 0 60 22 82 21 21 34 25 83 25 35 -1 66
-6 77 -15z"/>
<path d="M1720 1543 c1 -18 28 -55 33 -46 10 15 -4 53 -19 53 -8 0 -14 -3 -14
-7z"/>
<path d="M885 1590 c-4 -7 -3 -16 3 -22 14 -14 45 -2 40 15 -6 16 -34 21 -43
7z"/>
<path d="M1347 1463 c-4 -3 -7 -24 -7 -46 0 -39 0 -40 20 -22 23 21 28 75 7
75 -8 0 -17 -3 -20 -7z"/>
</g>
</svg>
